<?xml version="1.0" encoding="UTF-8" standalone="no"?>
<!DOCTYPE svg PUBLIC "-//W3C//DTD SVG 1.1//EN" "http://www.w3.org/Graphics/SVG/1.1/DTD/svg11.dtd">
<svg width="100%" height="100%" viewBox="0 0 800 800" version="1.1" xmlns="http://www.w3.org/2000/svg" xmlns:xlink="http://www.w3.org/1999/xlink" xml:space="preserve" xmlns:serif="http://www.serif.com/" style="fill-rule:evenodd;clip-rule:evenodd;stroke-linejoin:round;stroke-miterlimit:2;">
    <path d="M115.604,169.051C64.332,232.094 33.584,312.485 33.584,400C33.584,602.23 197.77,766.416 400,766.416C602.23,766.416 766.416,602.23 766.416,400C766.416,197.77 602.23,33.584 400,33.584C298.045,33.584 205.761,75.315 139.309,142.613L113.58,120.892C186.254,46.33 287.759,0 400,0C620.766,0 800,179.234 800,400C800,620.766 620.766,800 400,800C179.234,800 0,620.766 0,400C0,304.429 33.59,216.642 89.597,147.81L115.604,169.051Z" style="fill:rgb(213,77,7);"/>
    <g transform="matrix(0.752232,0.362452,-0.362452,0.752232,244.088,-45.8738)">
        <path d="M115.604,169.051C64.332,232.094 33.584,312.485 33.584,400C33.584,602.23 197.77,766.416 400,766.416C602.23,766.416 766.416,602.23 766.416,400C766.416,197.77 602.23,33.584 400,33.584C298.045,33.584 205.761,75.315 139.309,142.613L113.58,120.892C186.254,46.33 287.759,0 400,0C620.766,0 800,179.234 800,400C800,620.766 620.766,800 400,800C179.234,800 0,620.766 0,400C0,304.429 33.59,216.642 89.597,147.81L115.604,169.051Z" style="fill:rgb(213,77,7);"/>
    </g>
    <g transform="matrix(0.382933,-0.540619,0.540619,0.382933,30.5793,463.074)">
        <path d="M115.604,169.051C64.332,232.094 33.584,312.485 33.584,400C33.584,602.23 197.77,766.416 400,766.416C602.23,766.416 766.416,602.23 766.416,400C766.416,197.77 602.23,33.584 400,33.584C298.045,33.584 205.761,75.315 139.309,142.613L113.58,120.892C186.254,46.33 287.759,0 400,0C620.766,0 800,179.234 800,400C800,620.766 620.766,800 400,800C179.234,800 0,620.766 0,400C0,304.429 33.59,216.642 89.597,147.81L115.604,169.051Z" style="fill:rgb(213,77,7);"/>
    </g>
</svg>
